@startuml
'https://plantuml.com/class-diagram

abstract class Employee {
- firstName,lastName: String
- socialSecurityNumber: String
+ getFirstName(): String
+ setFirstName(String firstName): void
+ getLastName(): String
+ setLastName(String lastName): void
+ getSocialSecurityNumber(): String
+ setSocialSecurityNumber(String socialSecurityNumber): void
+ toString(): String
}

class SalariedEmployee {
weeklySalary: int
+ getWeeklySalary(): int
+ setWeeklySalary(): void
+ toString(): String
}

class HourlyEmployee {
wage: int
hoursWorked: int
+ getWage(): int
+ setWage(int wage): void
+ getHoursWorked(): int
+ setHoursWorked(int hoursWorked): void
+ toString(): String
}

class CommissionEmployee {
commissionRate: int
grossSales: int
+ getCommissionRate(): int
+ setCommissionRate(int commissionRate): void
+ getGrossSales(): int
+  setGrossSales(int grossSales): void
+ toString(): String
}

class BaseEmployee {
baseSalary: int
+ getBaseSalary(): int
+ setBaseSalary(int baseSalary):void
+ toString(): String
}

Employee <|-- SalariedEmployee
Employee <|-- HourlyEmployee
Employee<|-- CommissionEmployee
Employee<|-- BaseEmployee

@enduml